<?xml version="1.0" encoding="utf-8"?>
<!-- Generator: Adobe Illustrator 17.1.0, SVG Export Plug-In . SVG Version: 6.00 Build 0)  -->
<!DOCTYPE svg PUBLIC "-//W3C//DTD SVG 1.1//EN" "http://www.w3.org/Graphics/SVG/1.1/DTD/svg11.dtd">
<svg version="1.1" id="Layer_1" xmlns="http://www.w3.org/2000/svg" xmlns:xlink="http://www.w3.org/1999/xlink" x="0px" y="0px"
	 viewBox="0 0 218.5653992 75.9911957" width="219" height="78" style="enable-background:new 0 0 218.5653992 75.9911957;" xml:space="preserve">
<g>
	<g>
		<g>
			<path style="fill:#006940;" d="M13.7245998,67.1259995h3.5639992l1.1634998,5.392601h0.0401001l1.6387005-5.392601h4.1088009
				l1.6162987,5.392601h0.0340996l1.1519012-5.392601h3.3120003l-2.0742016,8.6416016h-4.6415997l-1.5702991-5.2549057H22.033699
				l-1.5816002,5.2549057h-4.6820993L13.7245998,67.1259995z"/>
			<path style="fill:#006940;" d="M34.3998985,67.1259995h4.5956993l4.4696999,8.6416016h-4.0682983l-0.6421013-1.4384995
				h-4.5268974l-0.6762009,1.4384995h-3.6158009L34.3998985,67.1259995z M37.8955002,72.4379959l-1.3638-3.0141983
				l-1.4155006,3.0141983H37.8955002z"/>
			<path style="fill:#006940;" d="M47.5224991,72.9882889c0.0116997,0.4814072,0.1035004,0.8252106,0.3325005,1.0599976
				c0.2466011,0.2232132,0.5732002,0.343811,1.0599976,0.343811c0.7622032,0,1.5874062-0.1776962,1.5874062-0.876503
				c0-0.1493988-0.057106-0.2870941-0.154705-0.3954926c-0.4986-0.5449066-4.6875-0.9570007-5.8624001-1.9717026
				c-0.4696999-0.4067001-0.6185989-1.0195007-0.6185989-1.5067978c0-1.8911057,1.7650986-2.7392044,5.266098-2.7392044
				c3.7251015,0,4.8540001,1.0146027,4.8994026,2.7963028h-3.6097946c-0.0229988-0.475502-0.1836052-0.7793045-0.4527054-0.9565048
				c-0.2578011-0.1776962-0.6132965-0.2353973-1.0830002-0.2353973c-0.7681007,0-1.1807022,0.2866974-1.1807022,0.7221985
				c0,0.1371994,0.0459023,0.3037033,0.1490021,0.4009018c0.5732002,0.5391006,4.6302986,0.9169998,5.7934036,1.9481964
				c0.3383942,0.2984009,0.6933937,0.7686005,0.6933937,1.6045074c0,1.7138977-1.5356979,2.8085938-5.5238991,2.8085938
				c-4.7563972,0-4.9858971-1.3983994-5.0601006-3.0029068H47.5224991z"/>
			<path style="fill:#006940;" d="M58.1469994,69.2289963h-2.8769989v-2.1029968h9.4438972v2.1029968h-2.8764915v6.5386047
				h-3.6904068V69.2289963z"/>
			<path style="fill:#006940;" d="M66.0264053,67.1259995h8.3949966v1.8163986H69.596199v1.592804h4.527298v1.822197h-4.527298
				v1.5937958h4.8768997v1.8164063h-8.4466934V67.1259995z"/>
			<path style="fill:#006940;" d="M81.2060013,67.1259995h5.5932999l1.8334961,5.793396h0.0230026l1.7767944-5.793396h5.6156998
				v8.6416016h-3.4266968v-6.4986038h-0.0230026l-2.4012985,6.4986038h-3.5644989l-2.2631989-6.4986038h-0.0345993v6.4986038
				h-3.1289978V67.1259995z"/>
			<path style="fill:#006940;" d="M101.3144073,67.1259995h4.601593L110.375,75.767601h-4.0634995l-0.6362-1.4384995h-4.5268936
				l-0.682106,1.4384995h-3.6156998L101.3144073,67.1259995z M104.8041992,72.4379959l-1.3521042-3.0141983l-1.4212952,3.0141983
				H104.8041992z"/>
			<path style="fill:#006940;" d="M111.1591949,67.1259995h5.3983994l2.9512024,5.793396h0.0342026v-5.793396h3.197197v8.6416016
				h-5.2256012l-3.1288986-6.1489029h-0.0223999v6.1489029h-3.2041016V67.1259995z"/>
			<path style="fill:#006940;" d="M127.9901962,67.1259995h4.5956955l4.468811,8.6416016h-4.0684052l-0.6416016-1.4384995
				h-4.5262909l-0.6768112,1.4384995h-3.6221008L127.9901962,67.1259995z M131.4852905,72.4379959l-1.3641968-3.0141983
				l-1.4208984,3.0141983H131.4852905z"/>
			<path style="fill:#006940;" d="M144.5907898,69.7558975c-0.0516968-0.2231979-0.1942902-0.4869003-0.4638977-0.6875
				c-0.2635956-0.2061081-0.6649933-0.3496017-1.2440948-0.3496017c-1.5809937,0-2.4580078,1.0371017-2.4580078,2.5960999
				c0,1.661705,0.7793121,2.865303,2.6133118,2.865303c0.8016968,0,1.3807983-0.126503,1.7137909-0.3037033v-1.3125h-2.1385956
				v-1.8222961h5.8222046v4.5615005c-1.7187042,0.3897018-4,0.6879959-5.930603,0.6879959
				c-4.407196,0-5.7646942-1.8856964-5.7646942-4.4355011c0-3.2436981,2.3144989-4.6532974,6.1777954-4.6532974
				c3.1797028,0,5.4608917,0.6762009,5.5175018,2.8535004H144.5907898z"/>
			<path style="fill:#006940;" d="M150.4297028,67.1259995h8.3954926v1.8163986h-4.8311005v1.592804h4.5274048v1.822197h-4.5274048
				v1.5937958h4.8827972v1.8164063h-8.4471893V67.1259995z"/>
			<path style="fill:#006940;" d="M160.5155945,67.1259995h5.593811l1.8329926,5.793396h0.0223999l1.7714996-5.793396h5.6152954
				v8.6416016h-3.4199982v-6.4986038h-0.0233917l-2.406311,6.4986038H165.9375l-2.2577972-6.4986038h-0.035202v6.4986038h-3.1289063
				V67.1259995z"/>
			<path style="fill:#006940;" d="M177.4091949,67.1259995h8.3955078v1.8163986h-4.8311005v1.592804h4.5273895v1.822197h-4.5273895
				v1.5937958h4.881897v1.8164063h-8.4463043V67.1259995z"/>
			<path style="fill:#006940;" d="M187.4608917,67.1259995h5.4092102l2.9452972,5.793396h0.0341949v-5.793396h3.1972961v8.6416016
				h-5.2256012l-3.128891-6.1489029h-0.0225067v6.1489029h-3.2089996V67.1259995z"/>
			<path style="fill:#006940;" d="M202.8642883,69.2289963h-2.8769989v-2.1029968h9.4443054v2.1029968h-2.8769073v6.5386047
				h-3.6903992V69.2289963z"/>
		</g>
		<path style="fill:#006940;" d="M0,0h23.9647999l7.8218002,36.2558975h0.2465992L43.0355988,0h27.6381989l10.8359985,36.2558975
			h0.2464981L89.4926987,0h22.199707L97.8358994,58.0590973H66.5936966L56.0780983,22.7432003h-0.2461014L45.2362976,58.0590973
			H13.7758999L0,0z"/>
		<path style="fill:#EEB111;" d="M111.6924057,0h31.4032974l10.5957031,35.3163986H153.9375L164.4472961,0h31.2187042
			l13.9434052,58.0590973h-22.2519989l-7.7480011-36.2494965h-0.2403107L168.527298,58.0590973h-27.6327972l-11.0019073-36.2494965
			h-0.2460938l-7.8223038,36.2494965H97.8358994L111.6924057,0z"/>
		<path style="fill:#006940;" d="M212.0673981,54.6044998c0-1.661602,1.2723999-2.9165001,2.8993988-2.9165001
			c1.6161957,0,2.8887024,1.2548981,2.8887024,2.9165001c0,1.6963005-1.2725067,2.9398994-2.8887024,2.9398994
			C213.339798,57.5443993,212.0673981,56.3008003,212.0673981,54.6044998z M214.9667969,58.1288986
			c1.9423981,0,3.5986023-1.4844017,3.5986023-3.5243988c0-2.0166016-1.6562042-3.4951019-3.5986023-3.4951019
			c-1.9541016,0-3.6103973,1.4785004-3.6103973,3.4951019C211.3563995,56.6444969,213.0126953,58.1288986,214.9667969,58.1288986z
			 M214.2216949,54.8915977h0.710907l1.0829926,1.7528992h0.6934052l-1.1641083-1.7875977
			c0.6026001-0.0746994,1.0606079-0.3896103,1.0606079-1.1118011c0-0.8022003-0.4804993-1.1571999-1.4434052-1.1571999h-1.5643921
			v4.0565987h0.6239929V54.8915977z M214.2216949,54.3642883v-1.2548904h0.8427124
			c0.4296875,0,0.8994904,0.0970993,0.8994904,0.5956993c0,0.625-0.4814911,0.6591911-1.0088043,0.6591911H214.2216949z"/>
	</g>
</g>
</svg>
